<?xml version="1.0" encoding="UTF-8"?>
<svg width="18px" height="32px" viewBox="0 0 18 32" version="1.1" xmlns="http://www.w3.org/2000/svg" xmlns:xlink="http://www.w3.org/1999/xlink">
    <title>np_walk_547056_000000</title>
    <defs>
        <filter id="filter-1">
            <feColorMatrix in="SourceGraphic" type="matrix" values="0 0 0 0 1.000000 0 0 0 0 1.000000 0 0 0 0 1.000000 0 0 0 1.000000 0"></feColorMatrix>
        </filter>
    </defs>
    <g id="Web" stroke="none" stroke-width="1" fill="none" fill-rule="evenodd">
        <g id="2.2.2-Map---Verbindingen-uitgeklapt" transform="translate(-1070.000000, -585.000000)">
            <g id="np_walk_547056_000000" transform="translate(1045.000000, 208.000000)" filter="url(#filter-1)">
                <g transform="translate(25.000000, 377.000000)">
                    <path d="M17.953,27.965 C17.953,27.906405 17.894405,27.617345 17.837765,27.26775 L16.964715,21.57025 C16.84948,20.873 16.441265,20.05855 15.861215,19.5937 L12.837765,16.8613 L12.837765,9.8263 C12.837765,7.84975 10.976415,6.6857 9.406115,6.2794 C9.173695,6.220805 8.94127,6.220805 8.708865,6.220805 C8.070215,6.220805 7.429565,6.394635 6.964715,6.744255 L4.290865,8.488405 C3.593615,8.95325 3.070165,9.882955 3.011565,10.697405 L2.661955,15.697405 C2.661955,15.98842 2.605315,16.279455 2.605315,16.338005 L2.605315,16.570425 C2.605315,18.023525 3.826015,19.244275 5.279165,19.244275 C5.861215,19.244275 6.326065,19.070445 6.673715,18.838025 C6.790905,19.070445 6.96473,19.244275 7.13856,19.418125 L11.26746,23.082175 L11.26746,23.138815 L12.19716,28.546815 C12.31435,29.126915 12.605365,29.882765 13.01161,30.349565 C13.18544,30.581985 13.82606,31.279265 15.04676,31.279265 C16.32606,31.279265 17.19716,30.406215 17.54676,29.650365 C17.837775,29.011715 17.95301,28.720665 17.95301,28.373015 C18.011605,28.13864 17.95301,28.023405 17.95301,27.96481 L17.953,27.965 Z M15.97645,28.83805 C15.97645,28.83805 15.685435,29.41815 15.10535,29.41815 C14.638555,29.41815 14.40615,29.127135 14.40615,29.127135 C14.23232,28.894715 13.9999,28.429885 13.941305,28.082235 L13.011605,22.617235 C12.95301,22.32622 12.72059,21.861385 12.488155,21.685585 L8.302605,17.964885 C8.070185,17.732465 7.83776,17.326235 7.83776,16.976585 L7.83776,11.744085 C7.83776,11.45307 7.72057,11.162035 7.546745,11.162035 L6.849495,11.162035 C6.617075,11.162035 6.44129,11.394455 6.44129,11.744085 L6.382695,12.441335 C6.382695,12.73235 6.326055,13.255785 6.326055,13.605385 L6.208865,15.814385 C6.208865,16.1054 6.09363,16.626885 5.91785,16.917885 C5.91785,16.917885 5.74402,17.32609 5.2206,17.32609 C4.69718,17.32609 4.2909,16.917885 4.2909,16.39444 L4.2909,16.3378 C4.2909,16.279205 4.2909,15.98819 4.349495,15.6972 L4.69715,10.6972 C4.69715,10.406185 4.92957,9.99995 5.2206,9.8261 L7.89445,8.08195 C8.07023,7.964765 8.4179,7.84953 8.6503,7.84953 C8.76749,7.84953 8.82608,7.84953 8.941315,7.90617 C8.941315,7.90617 11.093665,8.42962 11.093665,9.76752 L11.093665,16.97652 C11.093665,17.32613 11.267495,17.73237 11.499915,17.96482 L14.638565,20.81442 C14.87294,21.04684 15.10536,21.45307 15.162015,21.80272 L16.035065,27.50022 C16.09366,27.791235 16.1503,28.08227 16.1503,28.13887 L16.1503,28.25606 C16.26749,28.314655 16.1503,28.547075 15.97647,28.83811 L15.97645,28.83805 Z" id="Shape" fill="#000000" fill-rule="nonzero"></path>
                    <path d="M10.744,6.2205 C10.91783,6.279095 11.15025,6.279095 11.32605,6.279095 C12.7206,6.279095 13.9413,5.290795 14.2323,3.894345 C14.58191,2.325995 13.53505,0.755695 11.90615,0.406045 C11.73232,0.349405 11.4999,0.349405 11.32605,0.349405 C9.92955,0.349405 8.70885,1.337705 8.41785,2.732205 C8.126835,4.361105 9.1737,5.929455 10.744,6.220505 L10.744,6.2205 Z M10.16195,3.08185 C10.27914,2.4998 10.80255,2.09355 11.326,2.09355 L11.55842,2.09355 C12.19707,2.208785 12.66192,2.8494 12.48812,3.54665 C12.372885,4.12675 11.84947,4.53495 11.32602,4.53495 L11.0936,4.53495 C10.453,4.417765 10.0467,3.7791 10.16195,3.08185 L10.16195,3.08185 Z" id="Shape" fill="#000000" fill-rule="nonzero"></path>
                    <path d="M7.547,24.1855 L4.1173,29.5935 C3.94152,29.88256 3.59385,30.11695 3.18565,30.11695 C2.547,30.11695 2.08215,29.5935 2.08215,29.0115 C2.08215,28.720485 2.197385,28.48805 2.373165,28.25565 L5.627065,22.84965 L7.082165,20.6973 L6.732555,20.349645 C6.558725,20.173865 6.382945,20.000035 6.26771,19.767595 C6.03529,19.941425 5.74426,20.05861 5.394665,20.117205 L4.23256,21.861355 C4.23256,21.861355 4.23256,21.917995 4.173965,21.917995 L0.976715,27.208995 C0.627105,27.732445 0.394665,28.314445 0.394665,28.953145 C0.394665,30.523445 1.673965,31.802745 3.244265,31.802745 C4.232565,31.802745 5.105615,31.3379 5.627065,30.464845 L9.058715,25.058845 L10.162215,23.373295 L8.826265,22.209245 L7.547,24.1855 Z" id="Path" fill="#000000" fill-rule="nonzero"></path>
                    <path d="M13.6505,10.3495 L13.6505,12.1503 L15.74425,14.0702 C15.97667,14.30262 16.1505,14.47645 16.1505,14.76745 C16.1505,15.232295 15.802845,15.5819 15.338,15.5819 C15.16222,15.5819 14.98839,15.523305 14.873155,15.40612 L14.000105,14.53502 C13.94151,14.53502 13.882915,14.417835 13.70909,14.244005 L13.70909,16.511605 C13.82628,16.62684 13.88292,16.685435 13.94151,16.685435 L14.000105,16.685435 C14.406355,16.97645 14.929805,17.15028 15.394655,17.15028 C16.732555,17.15028 17.838005,16.04678 17.838005,14.70888 C17.838005,13.66198 17.138805,13.02333 16.906355,12.79093 L13.709105,9.82608 C13.59387,10.0585 13.65051,10.23233 13.65051,10.34953 L13.6505,10.3495 Z" id="Path" fill="#000000" fill-rule="nonzero"></path>
                </g>
            </g>
        </g>
    </g>
</svg>
