<?xml version="1.0" encoding="UTF-8"?>
<svg width="36px" height="24px" viewBox="0 0 36 24" version="1.1" xmlns="http://www.w3.org/2000/svg" xmlns:xlink="http://www.w3.org/1999/xlink">
    <title>np_moped_143289_000000</title>
    <defs>
        <filter id="filter-1">
            <feColorMatrix in="SourceGraphic" type="matrix" values="0 0 0 0 1.000000 0 0 0 0 1.000000 0 0 0 0 1.000000 0 0 0 1.000000 0"></feColorMatrix>
        </filter>
    </defs>
    <g id="Web" stroke="none" stroke-width="1" fill="none" fill-rule="evenodd">
        <g id="2.2.2-Map---Verbindingen-uitgeklapt" transform="translate(-1244.000000, -593.000000)">
            <g id="np_moped_143289_000000" transform="translate(1045.000000, 208.000000)" filter="url(#filter-1)">
                <g transform="translate(199.000000, 385.000000)">
                    <path d="M36.0000005,18.6796003 C35.9203125,15.3999202 33.4406405,12.7592002 30.2408005,12.4388002 L28.3611204,5.07960008 C28.6408084,5.15928808 28.9204804,5.19991208 29.2408004,5.19991208 C29.6814404,5.19991208 30.0408004,4.84053607 30.0408004,4.39991207 L30.0408004,1.19991202 C30.0408004,0.759272011 29.6814244,0.399912006 29.2408004,0.399912006 C28.5204804,0.399912006 27.8408004,0.64053601 27.3204804,1.04055202 L27.2001684,0.599912009 C27.1204804,0.240536004 26.8001684,-8.80000013e-05 26.4408084,-8.80000013e-05 L23.2408083,-8.80000013e-05 C22.8001683,-8.80000013e-05 22.4408083,0.359288005 22.4408083,0.799912012 C22.4408083,1.24053602 22.8001843,1.59991202 23.2408083,1.59991202 L25.8408084,1.59991202 L28.6408084,12.4795122 C25.8001684,12.9201522 23.6000084,15.1998322 23.2408083,17.999912 L21.1611283,17.999912 C20.8814403,14.0795922 18.4814483,10.7203122 15.0815282,9.07951214 C15.6408882,8.63887213 16.0018482,7.95919212 16.0018482,7.19983211 C16.0018482,5.87951209 14.9221682,4.79983207 13.6018482,4.79983207 L10.4018482,4.79983207 C9.08152814,4.79983207 8.00184812,5.87951209 8.00184812,7.19983211 C8.00184812,7.47952011 8.04247212,7.75919212 8.16122412,7.99983212 L2.40042404,7.99983212 C1.95978403,7.99983212 1.60042402,8.35920812 1.60042402,8.79983213 L1.60042402,12.5591922 C0.68010401,12.8795042 0.000424000006,13.7591922 0.000424000006,14.7998322 L0.000424000006,18.7998323 C0.000424000006,19.2404723 0.359800005,19.5998323 0.800424012,19.5998323 L1.68010403,19.5998323 C2.08010403,21.8795123 4.03946406,23.5998324 6.4005041,23.5998324 C8.75986413,23.5998324 10.7597042,21.8795123 11.1209042,19.5998323 L24.8801044,19.5998323 C25.2801044,21.8795123 27.2394644,23.5998324 29.6005044,23.5998324 C31.9598645,23.5998324 33.9597045,21.8795123 34.3209045,19.5998323 L35.2005845,19.5998323 C35.6412245,19.5998323 36.0005845,19.2404563 36.0005845,18.7998323 L36.0005845,18.6795203 L36.0000005,18.6796003 Z M28.4000004,2.20000003 L28.4000004,3.35936005 C28.1593764,3.19998405 28.0000004,2.99998404 28.0000004,2.75936004 C28.0000004,2.52029604 28.1593764,2.35936004 28.4000004,2.20000003 Z M29.6000004,14.0000002 C31.9593605,14.0000002 33.9592005,15.7203202 34.3204005,18.0000002 L24.8796004,18.0000002 C25.2405364,15.7203202 27.2405204,14.0000002 29.6000004,14.0000002 Z M9.60000014,7.20000011 C9.60000014,6.7593601 9.95937615,6.4000001 10.4000002,6.4000001 L13.6000001,6.4000001 C14.0406402,6.4000001 14.4000002,6.7593761 14.4000002,7.20000011 C14.4000002,7.64062411 14.0406242,8.00000012 13.6000001,8.00000012 L10.4000002,8.00000012 C9.95936015,8.00000012 9.60000014,7.64062411 9.60000014,7.20000011 Z M10.4000002,9.60000014 C15.2,9.60000014 19.1592003,13.3203202 19.5592003,18.0000003 L12.8000002,18.0000003 L12.8000002,14.8000002 C12.8000002,13.4796802 11.7203202,12.4000002 10.4000002,12.4000002 L3.20000005,12.4000002 L3.20000005,9.60000014 L10.4000002,9.60000014 Z M1.60000002,14.8000002 C1.60000002,14.3593602 1.95937603,14.0000002 2.40000004,14.0000002 L10.4000002,14.0000002 C10.8406402,14.0000002 11.2000002,14.3593762 11.2000002,14.8000002 L11.2000002,18.0000002 L1.60000002,18.0000002 L1.60000002,14.8000002 Z M6.4000001,22.0000003 C4.92032007,22.0000003 3.67968005,20.9593603 3.32032005,19.6000003 L9.52032014,19.6000003 C9.12032014,20.9593603 7.87968012,22.0000003 6.4000001,22.0000003 Z M29.6000004,22.0000003 C28.1203204,22.0000003 26.8796804,20.9593603 26.5203204,19.6000003 L32.7203205,19.6000003 C32.3203205,20.9593603 31.0796805,22.0000003 29.6000004,22.0000003 Z" id="Shape" fill="#000000" fill-rule="nonzero"></path>
                </g>
            </g>
        </g>
    </g>
</svg>
