<?xml version="1.0" encoding="UTF-8"?>
<svg width="24px" height="30px" viewBox="0 0 24 30" version="1.1" xmlns="http://www.w3.org/2000/svg" xmlns:xlink="http://www.w3.org/1999/xlink">
    <title>np_wheelchair_677336_000000</title>
    <defs>
        <filter id="filter-1">
            <feColorMatrix in="SourceGraphic" type="matrix" values="0 0 0 0 1.000000 0 0 0 0 1.000000 0 0 0 0 1.000000 0 0 0 1.000000 0"></feColorMatrix>
        </filter>
    </defs>
    <g id="Web" stroke="none" stroke-width="1" fill="none" fill-rule="evenodd">
        <g id="2.2.2-Map---Verbindingen-uitgeklapt" transform="translate(-1100.000000, -587.000000)">
            <g id="np_wheelchair_677336_000000" transform="translate(1045.000000, 208.000000)" filter="url(#filter-1)">
                <g transform="translate(55.000000, 379.000000)">
                    <path d="M13.9347,3.8403 C13.9347,2.34381 13.03353,0.99498 11.65188,0.423 C10.26906,-0.15006 8.67765,0.166359 7.62048,1.22457 C6.56229,2.28276 6.24588,3.873 6.81891,5.25597 C7.39077,6.63762 8.7396,7.53879 10.23621,7.53879 C12.27762,7.5352746 13.93101,5.88177 13.93461,3.84039 L13.9347,3.8403 Z M8.3331,3.8403 L8.3342718,3.8403 C8.3342718,3.07155 8.7960018,2.37897 9.5061318,2.08599 C10.2162918,1.791849 11.0330718,1.953567 11.5756518,2.49732 C12.1182318,3.0399 12.2811318,3.85668 11.9869818,4.56684 C11.6928408,5.27583 11.0014218,5.7387 10.2326718,5.7387 C9.1861818,5.7351846 8.3389218,4.88676 8.3365818,3.84027 L8.3331,3.8403 Z M18.417,27.6597 C19.03926,28.88547 20.53926,29.37534 21.765,28.75188 C22.99077,28.12845 23.47944,26.62962 22.85718,25.40388 L19.55718,18.78858 C19.13412,17.95068 18.27516,17.42451 17.33649,17.42685 L13.57479,17.42685 L13.57479,11.28615 C13.5677586,10.38381 13.2033,9.52014 12.56112,8.88615 C11.9283,8.27559 11.07285,7.94982 10.19394,7.98615 L3.38664,7.98615 C2.19249,7.9873218 1.22337,8.95413 1.21749,10.14825 L1.21749,14.11725 C1.1963961,14.70669 1.414365,15.27858 1.82334,15.70281 C2.232315,16.12704 2.796,16.36725 3.38544,16.36725 C3.97488,16.36725 4.53858,16.127016 4.94754,15.70281 C5.35653,15.27858 5.57448,14.70672 5.55339,14.11725 L5.55339,12.31725 L7.00887,12.31725 L7.0076982,19.07325 C7.0100421,20.91309 8.4983382,22.40475 10.3382982,22.40955 L15.7922982,22.40955 L18.417,27.6597 Z M8.8017,19.0734 L8.8017,11.4327 C8.8017,10.93584 8.39856,10.5327 7.9017,10.5327 L4.6497,10.5327 C4.15284,10.5327 3.7497,10.93584 3.7497,11.4327 L3.7497,14.1327 C3.759075,14.235825 3.7250907,14.33895 3.654777,14.415123 C3.584463,14.491296 3.486027,14.534655 3.381729,14.534655 C3.278604,14.534655 3.180165,14.491296 3.109854,14.415123 C3.03954,14.33895 3.005556,14.235825 3.014931,14.1327 L3.014931,10.1637 C3.0161031,9.960966 3.181338,9.79806 3.384081,9.79806 L10.257081,9.79806 C10.643811,9.7746225 11.022321,9.912903 11.303571,10.17891 C11.595369,10.473051 11.764131,10.86798 11.774661,11.28282 L11.774661,18.32682 C11.774661,18.82368 12.177801,19.22682 12.674661,19.22682 L17.324661,19.22682 C17.577786,19.2303354 17.808651,19.373304 17.924661,19.59831 L21.224661,26.19831 C21.309036,26.362374 21.32427,26.55222 21.26802,26.72565 C21.21177,26.900259 21.087552,27.04557 20.92467,27.12879 C20.586,27.292851 20.17818,27.160431 20.00124,26.82879 L17.15358,21.10779 C17.001237,20.80311 16.69068,20.61093 16.34967,20.60973 L10.34967,20.60973 C9.94068,20.6132457 9.54693,20.452698 9.25632,20.16441 C8.965695,19.876128 8.80164,19.48356 8.80164,19.0734 L8.8017,19.0734 Z M2.8767,18.4734 C2.19585,19.69917 1.93335,21.11247 2.13021,22.5 C2.332944,23.90508 2.99154,25.20585 4.00287,26.2032 C5.01537,27.19929 6.32553,27.83796 7.73427,28.01961 C8.97177,28.177812 10.22919,27.970392 11.35197,27.42429 C12.47346,26.8782 13.41213,26.01687 14.05197,24.94461 C14.310954,24.51804 14.86641,24.38094 15.29415,24.63876 C15.72189,24.897744 15.85899,25.4532 15.6,25.88094 C14.77149,27.2415 13.56915,28.33368 12.1371,29.02854 C10.70391,29.72346 9.102,29.99064 7.521,29.79846 C4.79874,29.46564 2.4198,27.8016 1.173,25.35816 C-0.07386,22.91598 -0.02583,20.01336 1.301907,17.61336 C1.543314,17.1786 2.090577,17.02155 2.526507,17.26179 C2.961267,17.503197 3.118317,18.05163 2.876907,18.48639 L2.8767,18.4734 Z" id="Shape" fill="#000000" fill-rule="nonzero"></path>
                </g>
            </g>
        </g>
    </g>
</svg>
