<?xml version="1.0" encoding="UTF-8"?>
<svg width="36px" height="22px" viewBox="0 0 36 22" version="1.1" xmlns="http://www.w3.org/2000/svg" xmlns:xlink="http://www.w3.org/1999/xlink">
    <title>np_electric-bike_905922_000000 copy</title>
    <defs>
        <filter id="filter-1">
            <feColorMatrix in="SourceGraphic" type="matrix" values="0 0 0 0 1.000000 0 0 0 0 1.000000 0 0 0 0 1.000000 0 0 0 1.000000 0"></feColorMatrix>
        </filter>
    </defs>
    <g id="Web" stroke="none" stroke-width="1" fill="none" fill-rule="evenodd">
        <g id="2.2.2-Map---Verbindingen-uitgeklapt" transform="translate(-1136.000000, -595.000000)">
            <g id="np_electric-bike_905922_000000-copy" transform="translate(1045.000000, 208.000000)" filter="url(#filter-1)">
                <g transform="translate(91.000000, 387.000000)">
                    <path d="M25.6251712,7.89520548 L24.0880822,5.06785959 L26.0004281,1.54619863 L27.5074144,1.54619863 C28.2899829,1.54619863 28.9280993,2.18431507 28.9280993,2.96688356 C28.9280993,3.40232534 29.2752466,3.74945205 29.7106678,3.74945205 C30.1461096,3.74945205 30.4932363,3.40230479 30.4932363,2.96688356 C30.4932363,1.32946918 29.1588014,-0.00496575342 27.521387,-0.00496575342 L25.5508904,-0.00496575342 C25.2458818,-0.00496575342 25.0010788,0.153556507 24.8686473,0.400373288 L22.7516438,4.29924315 L13.3447945,4.29924315 L12.7949829,3.26984247 L14.1715411,3.26984247 C14.6069829,3.26984247 14.9541096,2.92269521 14.9541096,2.48727397 C14.9541096,2.05183219 14.6069623,1.70470548 14.1715411,1.70470548 L9.62248288,1.70470548 C9.1870411,1.70470548 8.83991438,2.05185274 8.83991438,2.48727397 C8.83991438,2.92271575 9.18706164,3.26984247 9.62248288,3.26984247 L10.9849658,3.26984247 L11.5508562,4.31326712 L11.5789986,5.7660613 L10.4191699,7.8970887 C9.57839932,7.54994144 8.6513274,7.36130103 7.68012877,7.36130103 C3.69495753,7.36130103 0.432354795,10.6080305 0.432354795,14.609075 C0.432354795,18.5942462 3.67908425,21.856849 7.68012877,21.856849 C11.4044438,21.856849 14.4928,19.0295031 14.8837247,15.391438 L18.0141014,15.391438 C18.3030568,15.391438 18.563913,15.2329158 18.6963445,14.986099 L23.1751801,6.7247976 L24.2186048,8.66719486 C22.3343582,9.97152705 21.1023034,12.1607565 21.1023034,14.6250716 C21.1023034,18.6102428 24.3490329,21.8728455 28.3500774,21.8728455 C32.3513274,21.8728455 35.5978514,18.6261161 35.5978514,14.6250716 C35.5958449,10.6057908 32.3491185,7.35880445 28.3639473,7.35880445 C27.3930137,7.35941781 26.4659418,7.54804281 25.6251712,7.89520548 Z M7.67962329,20.274161 C4.54924658,20.274161 1.99708904,17.72375 1.99708904,14.5916267 C1.99708904,11.46125 4.5475,8.90909247 7.67962329,8.90909247 C8.37594178,8.90909247 9.05618151,9.03952568 9.6802226,9.27229281 L6.99933219,14.2146387 C6.86889897,14.4614555 6.86889897,14.7504264 7.01337877,14.9831832 C7.15785856,15.2159401 7.40467329,15.3604332 7.67959452,15.3604332 L13.3040808,15.3604332 C12.9268308,18.1436524 10.548961,20.2746798 7.67959452,20.2746798 L7.67962329,20.274161 Z M13.3020548,13.80875 L8.99782534,13.80875 L11.0707021,10.0262329 C12.2586301,10.9232021 13.0994007,12.271661 13.3021062,13.80875 L13.3020548,13.80875 Z M17.5500856,13.80875 L14.8832705,13.80875 C14.6504983,11.6636473 13.5348116,9.74934932 11.8532705,8.59162671 L11.8091243,8.63577295 L13.3301346,5.83852979 L21.8965729,5.83852979 L17.5500856,13.80875 Z M28.3639555,20.274161 C25.2335788,20.274161 22.6814212,17.72375 22.6814212,14.5916267 C22.6814212,12.7214555 23.5944178,11.0539384 25.0010788,10.0265411 L27.6819692,14.968887 C27.8264469,15.2297483 28.0873082,15.374226 28.3642123,15.374226 C28.4946455,15.374226 28.6110291,15.3461334 28.7414623,15.271887 C29.1187123,15.0692175 29.2631747,14.5896438 29.0605154,14.214387 L26.3635976,9.28606507 C26.9876387,9.05329795 27.6538545,8.92286473 28.3641969,8.92286473 C31.4945736,8.92286473 34.0467312,11.4732757 34.0467312,14.605399 C34.0447247,17.7377791 31.4942654,20.274161 28.3641969,20.274161 L28.3639555,20.274161 Z" id="Shape" fill="#000000" fill-rule="nonzero"></path>
                </g>
            </g>
        </g>
    </g>
</svg>
