<?xml version="1.0" encoding="UTF-8"?>
<svg width="48px" height="23px" viewBox="0 0 48 23" version="1.1" xmlns="http://www.w3.org/2000/svg" xmlns:xlink="http://www.w3.org/1999/xlink">
    <title>np_cargo-bike_1359398_000000</title>
    <defs>
        <filter id="filter-1">
            <feColorMatrix in="SourceGraphic" type="matrix" values="0 0 0 0 1.000000 0 0 0 0 1.000000 0 0 0 0 1.000000 0 0 0 1.000000 0"></feColorMatrix>
        </filter>
    </defs>
    <g id="Web" stroke="none" stroke-width="1" fill="none" fill-rule="evenodd">
        <g id="2.2.2-Map---Verbindingen-uitgeklapt" transform="translate(-1184.000000, -594.000000)">
            <g id="np_cargo-bike_1359398_000000" transform="translate(1045.000000, 208.000000)" filter="url(#filter-1)">
                <g transform="translate(163.000000, 397.500000) scale(-1, 1) translate(-163.000000, -397.500000) translate(139.000000, 386.000000)">
                    <path d="M37.3396089,9.10442222 L35.15144,5.83014222 L36.3173867,3.49819778 L37.4194444,3.49819778 C37.8666667,3.49819778 38.2180556,3.14680889 38.2180556,2.69958667 C38.2180556,2.25236444 37.8666667,1.88497778 37.4194444,1.88497778 L32.6277778,1.88497778 C32.1805556,1.88497778 31.8291667,2.23636667 31.8291667,2.68358889 C31.8291667,3.13081111 32.1805556,3.4822 32.6277778,3.4822 L34.5284978,3.4822 L28.9379644,14.6627556 L25.4400222,14.6627556 C24.9928,14.6627556 24.6414111,15.0141444 24.6414111,15.4613667 C24.6414111,15.9085889 24.9928,16.2599778 25.4400222,16.2599778 L33.5058667,16.2599778 C33.9051722,19.8377556 36.9239222,22.6488667 40.6133778,22.6488667 C44.5744889,22.6488667 47.8006222,19.4224778 47.8006222,15.4616222 C47.8006222,11.5007667 44.5742333,8.27437778 40.6133778,8.27437778 C39.4319444,8.27386667 38.3298356,8.59331111 37.3396089,9.10442222 Z M34.3210889,7.45925778 L35.9981467,9.98286889 C34.6245356,11.1328689 33.7140933,12.7780333 33.4905333,14.6467578 L30.7113667,14.6467578 L34.3210889,7.45925778 Z M36.8925911,11.3245356 L39.1287022,14.6627044 L35.1196489,14.6627044 C35.2953433,13.3369844 35.9502044,12.1710378 36.8925911,11.3245356 Z M35.1038044,16.2598244 L40.6140933,16.2598244 C40.9015933,16.2598244 41.1731467,16.1001022 41.3168711,15.8445467 C41.4605956,15.5889911 41.4446489,15.2695467 41.2849267,15.0299378 L38.2342067,10.4458844 C38.9689289,10.0944956 39.76754,9.88683111 40.63004,9.88683111 C43.7126533,9.88683111 46.2205733,12.3944444 46.2205733,15.4773644 C46.2205733,18.5602844 43.6969622,21.0515422 40.6141956,21.0515422 C37.8029822,21.0515422 35.5029822,18.9591044 35.1038044,16.2598244 Z M25.0446489,0.287602222 C24.5974267,0.287602222 24.2460378,0.638991111 24.2460378,1.08621333 L24.2460378,6.67674667 L0.894393333,6.67674667 C0.447171111,6.67674667 0.0957822222,7.02813556 0.0957822222,7.47535778 L0.0957822222,15.4614689 C0.0957822222,15.9086911 0.447171111,16.26008 0.894393333,16.26008 L6.58050444,16.26008 C6.58050444,19.7899156 9.43955778,22.6489689 12.9693933,22.6489689 C16.4992289,22.6489689 19.3582822,19.7899156 19.3582822,16.26008 L25.0443933,16.26008 C25.4916156,16.26008 25.8430044,15.9086911 25.8430044,15.4614689 L25.8430044,1.88533556 L28.2388378,1.88533556 C28.68606,1.88533556 29.0374489,1.53394667 29.0374489,1.08672444 C29.0374489,0.639502222 28.68606,0.288113333 28.2388378,0.288113333 L25.0446489,0.287602222 Z M8.17798222,16.2598244 C8.17798222,16.0362133 8.20992667,15.8126022 8.24187111,15.5889911 L8.24187111,15.5730189 C8.32173222,14.9820722 8.51339889,14.4389656 8.78492667,13.9438522 C8.91270444,13.7042689 9.07242667,13.4806578 9.24812111,13.2570211 L9.28006556,13.2250767 C9.43978778,13.0174378 9.63145444,12.8417433 9.82312111,12.6660233 C9.85506556,12.6500511 9.87103778,12.6181067 9.90298222,12.6021344 C10.0946489,12.4424122 10.2863156,12.2986622 10.4939289,12.1708844 C10.5418456,12.13894 10.6057344,12.1069956 10.6696233,12.0750511 C10.86129,11.9632456 11.0529567,11.8674122 11.2446233,11.7875511 C11.3564289,11.7396344 11.4842067,11.70769 11.5960122,11.6757456 C11.7557344,11.6278289 11.9154567,11.5799122 12.0751789,11.5479678 C12.3626789,11.4840789 12.6661256,11.4521344 12.9696233,11.4521344 C13.2731211,11.4521344 13.5765678,11.5000511 13.8640678,11.56394 C14.02379,11.5958844 14.1835122,11.6438011 14.3432344,11.6917178 C14.45504,11.7236622 14.5828178,11.7556067 14.6946233,11.8035233 C14.9022622,11.8833844 15.0939289,11.9792178 15.2696233,12.0910233 C15.3335122,12.1229678 15.3814289,12.1549122 15.4453178,12.1868567 C15.6529567,12.3146344 15.8446233,12.4583844 16.0362644,12.6181067 C16.0682089,12.6340789 16.0841811,12.6660233 16.1161256,12.6819956 C16.3077922,12.85769 16.4994589,13.0333844 16.6591811,13.2410489 L16.6911256,13.2729933 C16.86682,13.4806322 17.01057,13.7202156 17.15432,13.9598244 C17.4258478,14.4549633 17.6175144,14.9979933 17.6973756,15.5889911 L17.6973756,15.6049633 C17.72932,15.8285744 17.7612644,16.0362133 17.7612644,16.2757967 C17.7612644,18.8952411 15.6049889,21.0515167 12.9695978,21.0515167 C10.3342578,21.0515167 8.17798222,18.8952156 8.17798222,16.2598244 Z M24.2458844,14.6626022 L19.1346711,14.6626022 L19.1346711,14.64663 C18.7832822,13.32091 18.0326133,12.1869078 17.0103911,11.3403544 C16.9465022,11.2924378 16.8826133,11.2285489 16.8187244,11.1806322 C16.6110856,11.02091 16.4034467,10.8931322 16.1957822,10.7653544 C16.0680044,10.7014656 15.9561989,10.6216044 15.8284211,10.5736878 C15.6367544,10.4778544 15.4450878,10.3820211 15.2374744,10.30216 C15.0458078,10.2222989 14.8541411,10.1743822 14.6624744,10.1264656 C14.5027522,10.0785489 14.34303,10.0306322 14.1673356,9.99868778 C13.7840022,9.91882667 13.4006689,9.88688222 13.0013889,9.88688222 C12.6021089,9.88688222 12.2187756,9.93479889 11.8354422,9.99868778 C11.67572,10.0306322 11.5159978,10.0785489 11.3403033,10.1264656 C11.1486367,10.1743822 10.9409978,10.2382711 10.7653033,10.30216 C10.5576644,10.3820211 10.3659978,10.4778544 10.1743567,10.5736878 C10.0465789,10.6375767 9.93477333,10.7014656 9.80699556,10.7653544 C9.58338444,10.8931322 9.37574556,11.02091 9.18405333,11.1806322 C9.12016444,11.2285489 9.05627556,11.2924378 8.99238667,11.3403544 C7.97016444,12.1868567 7.20349778,13.32091 6.86810667,14.64663 L6.86810667,14.6626022 L1.75699556,14.6626022 L1.75699556,8.27371333 L24.2458844,8.27371333 L24.2458844,14.6626022 Z" id="Shape" fill="#000000" fill-rule="nonzero"></path>
                </g>
            </g>
        </g>
    </g>
</svg>
