<?xml version="1.0" encoding="utf-8"?>
<svg width="13px" height="13px" viewBox="0 0 13 13" version="1.1" xmlns:xlink="http://www.w3.org/1999/xlink" xmlns="http://www.w3.org/2000/svg">
    <path d="M8.24854 6.50009L12.6215 2.12598C13.112 1.65051 13.1259 0.867747 12.6516 0.377225C12.1761 -0.113296 11.3934 -0.12722 10.9029 0.345914C10.8924 0.356352 10.882 0.36563 10.8727 0.377225L6.4998 4.75015L2.1257 0.378116C1.65255 -0.113563 0.869792 -0.126329 0.378114 0.346805C-0.113563 0.822275 -0.126328 1.60504 0.346803 2.09672C0.357238 2.10715 0.367676 2.11759 0.378114 2.12803L4.75013 6.50006L0.377224 10.8742C-0.113296 11.3496 -0.127219 12.1324 0.345913 12.6229C0.821381 13.1135 1.60414 13.1274 2.09466 12.6531C2.1051 12.6426 2.11553 12.6334 2.12481 12.6229L6.50009 8.24882L10.8742 12.6217C11.3497 13.1123 12.1324 13.1262 12.6229 12.6519C13.1135 12.1764 13.1274 11.3937 12.6531 10.9031C12.6426 10.8927 12.6334 10.8823 12.6229 10.873L8.24854 6.50009Z" id="Fill-1" fill="#FFFFFF" fill-rule="evenodd" stroke="none" />
</svg>
