<?xml version="1.0" encoding="utf-8"?>
<svg width="24px" height="20px" viewBox="0 0 24 20" version="1.1" xmlns:xlink="http://www.w3.org/1999/xlink" xmlns="http://www.w3.org/2000/svg">
    <desc>Created with Lunacy</desc>
    <defs>
        <filter id="filter_1">
            <feColorMatrix in="SourceGraphic" type="matrix" values="0 0 0 0 0.05882353 0 0 0 0 0.35686275 0 0 0 0 0.4117647 0 0 0 1 0" />
        </filter>
    </defs>
    <g id="Group-4" transform="translate(0.2999878 0.30000305)" filter="url(#filter_1)">
        <path d="M19.7514 8.23675C21.2985 8.23675 22.5877 6.97189 22.5877 5.39633C22.5877 3.82078 21.3247 2.55591 19.7514 2.55591L16.5535 2.55591C15.8314 2.55591 15.1616 2.81413 14.6197 3.30434L11.8097 5.9653C11.7321 5.21687 11.3202 4.57132 10.7269 4.15776C11.2426 3.71899 11.6032 3.07344 11.6032 2.35022C11.6032 1.05912 10.5456 0 9.25636 0C7.96712 0 6.90954 1.05912 6.90954 2.35022C6.90954 3.07344 7.24495 3.71899 7.78581 4.15776C7.11499 4.62276 6.67686 5.39742 6.67686 6.27495L6.67686 10.7675L4.9253 12.3945L2.83632 12.3945C1.28924 12.3945 0 13.6593 0 15.2349C0 16.8104 1.26304 18.0753 2.83632 18.0753L6.05941 18.0753C6.78159 18.0753 7.45138 17.8171 7.99327 17.3269L17.6625 8.23675L19.7514 8.23675ZM7.91566 2.35011C7.91566 1.60169 8.50891 1.00757 9.25626 1.00757C10.0036 1.00757 10.5969 1.60169 10.5969 2.35011C10.5969 3.09854 10.0036 3.69265 9.25626 3.69265C8.53509 3.69265 7.91566 3.07233 7.91566 2.35011ZM7.684 6.2748C7.684 5.39726 8.40618 4.69924 9.25728 4.69924C10.1335 4.69924 10.8306 5.42247 10.8306 6.2748L10.8306 6.86891L7.68405 9.83844L7.684 6.2748ZM17.1207 7.38535L7.29723 16.5775C6.96182 16.8871 6.52368 17.0677 6.05935 17.0677L2.83626 17.0687C1.83107 17.0687 1.00513 16.2426 1.00513 15.2349C1.00513 14.2283 1.83004 13.4011 2.83626 13.4011L5.13069 13.4011C5.25961 13.4011 5.38854 13.3497 5.4661 13.272L15.3156 4.07887C15.651 3.76921 16.0892 3.58866 16.5535 3.58866L19.7503 3.58866C20.7555 3.58866 21.5814 4.41476 21.5814 5.42244C21.5814 6.42908 20.7565 7.25622 19.7503 7.25622L17.4558 7.25622C17.3531 7.25622 17.2242 7.30766 17.1204 7.38533L17.1207 7.38535Z" transform="translate(0.12918104 -5.1644005E-05)" id="Fill-1" fill="#0F5B69" fill-rule="evenodd" stroke="#0F5B69" stroke-width="0.6" />
    </g>
</svg>
