<?xml version="1.0" encoding="utf-8"?>
<svg width="28px" height="22px" viewBox="0 0 28 22" version="1.1" xmlns:xlink="http://www.w3.org/1999/xlink" xmlns="http://www.w3.org/2000/svg">
    <desc>Created with Lunacy</desc>
    <defs>
        <filter id="filter_1">
            <feColorMatrix in="SourceGraphic" type="matrix" values="0 0 0 0 1 0 0 0 0 1 0 0 0 0 1 0 0 0 1 0" />
        </filter>
    </defs>
    <g id="Group-4" transform="translate(0.29999924 0.2999878)" filter="url(#filter_1)">
        <path d="M22.6857 9.44678C24.4626 9.44678 25.9434 7.9961 25.9434 6.18908C25.9434 4.38207 24.4927 2.93139 22.6857 2.93139L19.0128 2.93139C18.1833 2.93139 17.414 3.22754 16.7916 3.78976L13.5641 6.84163C13.4751 5.98326 13.0019 5.24287 12.3205 4.76855C12.9128 4.26533 13.327 3.52494 13.327 2.69547C13.327 1.2147 12.1123 0 10.6315 0C9.15074 0 7.93604 1.2147 7.93604 2.69547C7.93604 3.52494 8.32127 4.26533 8.94248 4.76855C8.17201 5.30186 7.66879 6.19033 7.66879 7.19678L7.66879 12.3493L5.65701 14.2153L3.25769 14.2153C1.48077 14.2153 0 15.6659 0 17.473C0 19.28 1.45068 20.7307 3.25769 20.7307L6.95962 20.7307C7.78908 20.7307 8.55837 20.4345 9.18077 19.8723L20.2865 9.44678L22.6857 9.44678ZM9.09163 2.69536C9.09163 1.83698 9.77302 1.15559 10.6314 1.15559C11.4898 1.15559 12.1712 1.83698 12.1712 2.69536C12.1712 3.55373 11.4898 4.23512 10.6314 4.23512C9.80308 4.23512 9.09163 3.52367 9.09163 2.69536ZM8.82555 7.1966C8.82555 6.19015 9.65502 5.38959 10.6326 5.38959C11.639 5.38959 12.4396 6.21905 12.4396 7.1966L12.4396 7.87799L8.82561 11.2838L8.82555 7.1966ZM19.6642 8.4703L8.38132 19.0128C7.99608 19.3679 7.49286 19.575 6.95954 19.575L3.25762 19.5762C2.10309 19.5762 1.15445 18.6287 1.15445 17.473C1.15445 16.3185 2.10191 15.3698 3.25762 15.3698L5.89292 15.3698C6.04099 15.3698 6.18907 15.3108 6.27815 15.2217L17.5909 4.67808C17.9762 4.32293 18.4794 4.11586 19.0127 4.11586L22.6844 4.11586C23.839 4.11586 24.7876 5.06331 24.7876 6.21902C24.7876 7.37355 23.8401 8.32219 22.6844 8.32219L20.0491 8.32219C19.9311 8.32219 19.7831 8.38119 19.6639 8.47027L19.6642 8.4703Z" transform="translate(0.14837249 -5.923077E-05)" id="Fill-1" fill="#FFFFFF" fill-rule="evenodd" stroke="#0F5B69" stroke-width="0.6" />
    </g>
</svg>
