<?xml version="1.0" encoding="utf-8"?>
<svg width="28px" height="24px" viewBox="0 0 28 24" version="1.1" xmlns:xlink="http://www.w3.org/1999/xlink" xmlns="http://www.w3.org/2000/svg">
    <desc>Created with Lunacy</desc>
    <path d="M27.8216 22.1216L15.1196 0.62801C14.6188 -0.209337 13.41 -0.209337 12.9092 0.62801L0.177388 22.1216C-0.323408 22.9589 0.294818 23.9994 1.29758 23.9994L26.7326 23.9994C27.7043 24.0288 28.3236 22.9589 27.8217 22.1216L27.8216 22.1216ZM12.8208 6.60794C12.8208 5.97259 13.3515 5.45234 13.9997 5.45234C14.6478 5.45234 15.1786 5.97259 15.1786 6.60794L15.1786 14.8416C15.1786 15.4769 14.6478 15.9972 13.9997 15.9972C13.3515 15.9972 12.8208 15.4769 12.8208 14.8416L12.8208 6.60794ZM13.9997 21.0235C13.0568 21.0235 12.29 20.2719 12.29 19.3476C12.29 18.4234 13.0568 17.6718 13.9997 17.6718C14.9425 17.6718 15.7093 18.4234 15.7093 19.3476C15.7093 20.273 14.9425 21.0235 13.9997 21.0235Z" id="Fill-1" fill="#F0BE4A" fill-rule="evenodd" stroke="none" />
</svg>
