<?xml version="1.0" encoding="UTF-8"?>
<svg width="14px" height="21px" viewBox="0 0 14 21" version="1.1" xmlns="http://www.w3.org/2000/svg" xmlns:xlink="http://www.w3.org/1999/xlink">
    <title>Group 4 Copy 4</title>
    <g id="Web" stroke="none" stroke-width="1" fill="none" fill-rule="evenodd">
        <g id="2.2.1-Map" transform="translate(-816.000000, -343.000000)">
            <g id="map" transform="translate(321.124005, 105.000000)">
                <g id="Sint-annatunnel" transform="translate(378.875995, 235.000000)">
                    <g id="Group-4-Copy-4" transform="translate(116.400005, 3.600000)">
                        <path d="M8.20876904,0 L4.69438006,0 C2.1132608,0 0.0451618005,2.09088013 0.0451618005,4.64921826 L0.0451618005,15.1280908 C0.0451618005,17.7092101 2.13604193,19.7773097 4.69438006,19.7773097 L8.18696679,19.7773097 C10.7680861,19.7773097 12.8361851,17.686429 12.8361851,15.1280908 L12.8361851,4.64921826 C12.8587793,2.09079114 10.7670182,0 8.20854657,0 L8.20876904,0 Z M11.3015737,15.150783 C11.3015737,16.8636388 9.89982263,18.2653899 8.18696679,18.2653899 L4.69438006,18.2653899 C2.98152423,18.2653899 1.57977313,16.8636388 1.57977313,15.150783 L1.57977313,4.64944073 C1.57977313,2.9365849 2.98152423,1.5348338 4.69438006,1.5348338 L8.18696679,1.5348338 C9.89982263,1.5348338 11.3015737,2.9365849 11.3015737,4.64944073 L11.3015737,15.150783 Z" id="Fill-1" fill="#0F5B69"></path>
                        <path d="M6.45168579,10.4788726 C4.62759399,10.4788726 3.15887885,11.9475432 3.15887885,13.7716795 C3.15887885,15.5958158 4.6275495,17.0644864 6.45168579,17.0644864 C8.27582208,17.0644864 9.74449273,15.5958158 9.74449273,13.7716795 C9.74449273,11.969301 8.27582208,10.4788726 6.45168579,10.4788726 Z" id="Fill-2" fill="#7FBB37"></path>
                        <path d="M6.45168579,2.713935 C4.62759399,2.713935 3.15887885,4.18260565 3.15887885,6.00674194 C3.15887885,7.83083374 4.6275495,9.29954889 6.45168579,9.29954889 C8.27577759,9.29867902 9.74449273,7.83087823 9.74449273,6.02854419 C9.74449273,4.20445239 8.27582208,2.71415747 6.45168579,2.71415747 L6.45168579,2.713935 Z M6.45168579,8.14180499 C5.27240662,8.14180499 4.31559937,7.18499774 4.31559937,6.00571857 C4.31559937,4.8264394 5.27240662,3.86963215 6.45168579,3.86963215 C7.63096496,3.86963215 8.58777221,4.8264394 8.58777221,6.00571857 C8.58777221,7.18499774 7.63096496,8.14180499 6.45168579,8.14180499 Z" id="Fill-3" fill="#DCDCDC"></path>
                    </g>
                </g>
            </g>
        </g>
    </g>
</svg>
