<?xml version="1.0" encoding="UTF-8"?>
<svg width="13px" height="20px" viewBox="0 0 13 20" version="1.1" xmlns="http://www.w3.org/2000/svg" xmlns:xlink="http://www.w3.org/1999/xlink">
    <title>Group 4</title>
    <g id="Web" stroke="none" stroke-width="1" fill="none" fill-rule="evenodd">
        <g id="2.2.1-Map" transform="translate(-983.000000, -356.000000)">
            <g id="map" transform="translate(321.124005, 105.000000)">
                <g id="Millenium-Bridge" transform="translate(541.875995, 247.000000)">
                    <g id="Group-4" transform="translate(120.000000, 4.000000)">
                        <path d="M8.20876904,0 L4.69438006,0 C2.1132608,0 0.0451618005,2.09088013 0.0451618005,4.64921826 L0.0451618005,15.1280908 C0.0451618005,17.7092101 2.13604193,19.7773097 4.69438006,19.7773097 L8.18696679,19.7773097 C10.7680861,19.7773097 12.8361851,17.686429 12.8361851,15.1280908 L12.8361851,4.64921826 C12.8587793,2.09079114 10.7670182,0 8.20854657,0 L8.20876904,0 Z M11.3015737,15.150783 C11.3015737,16.8636388 9.89982263,18.2653899 8.18696679,18.2653899 L4.69438006,18.2653899 C2.98152423,18.2653899 1.57977313,16.8636388 1.57977313,15.150783 L1.57977313,4.64944073 C1.57977313,2.9365849 2.98152423,1.5348338 4.69438006,1.5348338 L8.18696679,1.5348338 C9.89982263,1.5348338 11.3015737,2.9365849 11.3015737,4.64944073 L11.3015737,15.150783 Z" id="Fill-1" fill="#0F5B69"></path>
                        <path d="M6.45168579,2.713935 C4.62759399,2.713935 3.15887885,4.18260565 3.15887885,6.00674194 C3.15887885,7.83087823 4.6275495,9.29954889 6.45168579,9.29954889 C8.27582208,9.29954889 9.74449273,7.83087823 9.74449273,6.00674194 C9.74449273,4.2043634 8.27582208,2.713935 6.45168579,2.713935 Z" id="Fill-2" fill="#DA6B2F"></path>
                        <path d="M6.45168579,10.4788726 C4.62759399,10.4788726 3.15887885,11.9475432 3.15887885,13.7716795 C3.15887885,15.5957713 4.6275495,17.0644864 6.45168579,17.0644864 C8.27577759,17.0636166 9.74449273,15.5958158 9.74449273,13.7934817 C9.74449273,11.9693899 8.27582208,10.479095 6.45168579,10.479095 L6.45168579,10.4788726 Z M6.45168579,15.9067425 C5.27240662,15.9067425 4.31559937,14.9499353 4.31559937,13.7706561 C4.31559937,12.591377 5.27240662,11.6345697 6.45168579,11.6345697 C7.63096496,11.6345697 8.58777221,12.591377 8.58777221,13.7706561 C8.58777221,14.9499353 7.63096496,15.9067425 6.45168579,15.9067425 Z" id="Fill-3" fill="#DCDCDC"></path>
                    </g>
                </g>
            </g>
        </g>
    </g>
</svg>
