<?xml version="1.0" encoding="UTF-8"?>
<svg width="19px" height="19px" viewBox="0 0 19 19" version="1.1" xmlns="http://www.w3.org/2000/svg" xmlns:xlink="http://www.w3.org/1999/xlink">
    <title>Fill 1</title>
    <g id="Web" stroke="none" stroke-width="1" fill="none" fill-rule="evenodd">
        <g id="2.2.1-Map" transform="translate(-1347.000000, -221.000000)" fill="#2289AD">
            <g id="Group-5-Copy-2" transform="translate(1045.000000, 200.000000)">
                <path d="M311.5,21 C306.25353,21 302,25.25353 302,30.5 C302,35.74647 306.25353,40 311.5,40 C316.74647,40 321,35.74647 321,30.5 C321,25.25353 316.74647,21 311.5,21 Z M310.402313,34.60058 L310.402313,30.25129 C310.402313,29.645665 310.893634,29.153603 311.5,29.153603 C312.106366,29.153603 312.597687,29.645665 312.597687,30.25129 L312.597687,34.60058 C312.597687,35.206946 312.106366,35.698267 311.5,35.698267 C310.893634,35.698267 310.402313,35.206946 310.402313,34.60058 Z M311.5,27.95571 C310.966366,27.95571 310.485438,27.634344 310.281321,27.141522 C310.076482,26.6487 310.189289,26.080942 310.567062,25.703906 C310.944098,25.326129 311.511875,25.213326 312.004678,25.417424 C312.498241,25.621522 312.819607,26.10321 312.819607,26.636844 C312.819607,26.986406 312.680077,27.321889 312.432919,27.569782 C312.185767,27.816934 311.849562,27.95571 311.499981,27.95571 L311.5,27.95571 Z" id="Fill-1"></path>
            </g>
        </g>
    </g>
</svg>
