<?xml version="1.0" encoding="UTF-8"?>
<svg width="27px" height="22px" viewBox="0 0 27 22" version="1.1" xmlns="http://www.w3.org/2000/svg" xmlns:xlink="http://www.w3.org/1999/xlink">
    <title>bericht</title>
    <defs>
        <filter id="filter-1">
            <feColorMatrix in="SourceGraphic" type="matrix" values="0 0 0 0 1.000000 0 0 0 0 1.000000 0 0 0 0 1.000000 0 0 0 1.000000 0"></feColorMatrix>
        </filter>
    </defs>
    <g id="Mobile-" stroke="none" stroke-width="1" fill="none" fill-rule="evenodd">
        <g id="1.2.1-Map" transform="translate(-319.000000, -85.000000)">
            <g id="bericht" transform="translate(309.000000, 71.000000)" filter="url(#filter-1)">
                <g transform="translate(11.500000, 15.400000)">
                    <path d="M18.9274837,5.77043198 L5.03777133,5.77043198 C4.80772088,5.77043198 4.62101327,5.58372437 4.62101327,5.35367393 C4.62101327,5.12278997 4.80772088,4.93691588 5.03777133,4.93691588 L18.9274837,4.93691588 C19.1575341,4.93691588 19.3442417,5.12278997 19.3442417,5.35367393 C19.3442417,5.58372437 19.1575341,5.77043198 18.9274837,5.77043198" id="Fill-1" stroke="#979797" stroke-width="0.550000012" fill="#1A1A1A"></path>
                    <path d="M18.9274837,8.60605376 L5.03777133,8.60605376 C4.80772088,8.60605376 4.62101327,8.42017967 4.62101327,8.18929571 C4.62101327,7.95924527 4.80772088,7.77253766 5.03777133,7.77253766 L18.9274837,7.77253766 C19.1575341,7.77253766 19.3442417,7.95924527 19.3442417,8.18929571 C19.3442417,8.42017967 19.1575341,8.60605376 18.9274837,8.60605376" id="Fill-2" stroke="#979797" stroke-width="0.550000012" fill="#1A1A1A"></path>
                    <path d="M15.3466985,11.4425091 L5.03777133,11.4425091 C4.80772088,11.4425091 4.62101327,11.256635 4.62101327,11.025751 C4.62101327,10.7957006 4.80772088,10.608993 5.03777133,10.608993 L15.3466985,10.608993 C15.5767489,10.608993 15.7634565,10.7957006 15.7634565,11.025751 C15.7634565,11.256635 15.5767489,11.4425091 15.3466985,11.4425091" id="Fill-3" stroke="#979797" stroke-width="0.550000012" fill="#1A1A1A"></path>
                    <path d="M19.2333841,7.4388493e-14 C22.1390212,7.4388493e-14 24.5028729,2.36385167 24.5028729,5.2694888 L24.5028729,10.1105503 C24.5028729,13.0161875 22.1390212,15.3800391 19.2333841,15.3800391 L10.491,15.38 L5.53454692,19.2367181 C5.46036399,19.2950643 5.36951074,19.3250708 5.27865748,19.3250708 C5.21614377,19.3250708 5.15363006,19.3109011 5.09528394,19.2825615 C4.95275268,19.2125462 4.86189943,19.0675144 4.86189943,18.9083128 L4.8616765,15.3644258 C2.14517178,15.1556401 -2.38392413e-13,12.8790144 -2.38392413e-13,10.1105503 L-2.38392413e-13,5.2694888 C-2.38392413e-13,2.36385167 2.36301815,7.4388493e-14 5.2694888,7.4388493e-14 L19.2333841,7.4388493e-14 Z M19.2333841,0.833516103 L5.2694888,0.833516103 C2.82311904,0.833516103 0.833516103,2.82311904 0.833516103,5.2694888 L0.833516103,10.1105503 C0.833516103,12.5413766 2.79925595,14.5225615 5.2253937,14.5463073 L5.27865748,14.5406884 L5.27865748,14.5406884 C5.50870792,14.5406884 5.69541553,14.727396 5.69541553,14.9574465 L5.69541553,18.0556258 L9.134,15.38 L8.09177433,15.3800391 C7.86172388,15.3800391 7.67501628,15.1933315 7.67501628,14.9632811 C7.67501628,14.7323971 7.86172388,14.546523 8.09177433,14.546523 L19.2333841,14.546523 C21.6789203,14.546523 23.6693568,12.5560866 23.6693568,10.1105503 L23.6693568,5.2694888 C23.6693568,2.82311904 21.6789203,0.833516103 19.2333841,0.833516103 Z" id="Combined-Shape" stroke="#979797" stroke-width="0.550000012" fill="#DA6B2F"></path>
                </g>
            </g>
        </g>
    </g>
</svg>
