<?xml version="1.0" encoding="utf-8"?>
<svg width="23px" height="25px" viewBox="0 0 23 25" version="1.1" xmlns:xlink="http://www.w3.org/1999/xlink" xmlns="http://www.w3.org/2000/svg">
    <desc>Created with Lunacy</desc>
    <defs>
        <filter id="filter_1">
            <feColorMatrix in="SourceGraphic" type="matrix" values="0 0 0 0 1 0 0 0 0 1 0 0 0 0 1 0 0 0 1 0" />
        </filter>
    </defs>
    <g id="Group-6" filter="url(#filter_1)">
        <path d="M3.69019 0.204361L2.40375 1.45606L1.15109 0.203397C0.914648 -0.0677991 0.474569 -0.0677991 0.203397 0.203397C-0.0677991 0.474594 -0.0677991 0.879919 0.203397 1.15109L1.96369 2.91138C2.23489 3.18258 2.64021 3.18258 2.91138 2.91138L4.67168 1.15109C4.94287 0.879894 4.94287 0.474569 4.67168 0.203397C4.36671 -0.0668356 3.92761 -0.0668356 3.69019 0.204363L3.69019 0.204361Z" transform="translate(17.34366 14.484028)" id="Fill-1" fill="#000000" fill-rule="evenodd" stroke="none" />
        <path d="M2.3017 4.6034C3.58813 4.6034 4.6034 3.55436 4.6034 2.3017C4.6034 1.04904 3.55436 0 2.3017 0C1.01526 0 0 1.04904 0 2.3017C0 3.55436 1.01526 4.6034 2.3017 4.6034ZM2.3017 1.35408C2.80933 1.35408 3.24939 1.79414 3.24939 2.30177C3.24939 2.8094 2.80933 3.24947 2.3017 3.24947C1.79407 3.24947 1.35401 2.8094 1.35401 2.30177C1.35401 1.79414 1.76029 1.35408 2.3017 1.35408Z" transform="translate(5.3637953 2.13192)" id="Fill-2" fill="#000000" fill-rule="evenodd" stroke="none" />
        <path d="M0.677265 8.73165L0.744821 8.73165L0.744821 14.7895C0.744821 15.162 1.04979 15.4661 1.42134 15.4661L5.27966 15.467C5.65217 15.467 5.95618 15.162 5.95618 14.7905L5.95618 8.73187L6.02374 8.73187C6.39625 8.73187 6.70026 8.4269 6.70026 8.05535L6.70122 3.35061C6.70122 1.48897 5.21213 0 3.35061 0C1.4891 0 0 1.4891 0 3.35061L0 8.02052C0 8.42681 0.304969 8.73178 0.677485 8.73178L0.677265 8.73165ZM4.60328 14.1128L4.0281 14.1128L4.0281 11.6084C4.0281 11.2359 3.72313 10.9319 3.35158 10.9319C2.97906 10.9319 2.67506 11.2369 2.67506 11.6084L2.67506 14.1128L2.09988 14.1128L2.09795 8.73165L4.60337 8.73165L4.60328 14.1128ZM1.35396 3.35046C1.35396 2.23388 2.26788 1.35373 3.35069 1.35373C4.46727 1.35373 5.34742 2.26765 5.34742 3.35046L5.34742 7.34392L1.35396 7.34392L1.35396 3.35046Z" transform="translate(4.315053 7.107045)" id="Fill-3" fill="#000000" fill-rule="evenodd" stroke="none" />
        <path d="M14.5185 0L0.676521 0C0.304006 0 0 0.304969 0 0.676521L0 23.6905C0 24.0631 0.304969 24.3671 0.676521 24.3671L14.5185 24.3671C14.891 24.3671 15.195 24.0621 15.195 23.6905L15.195 0.676521C15.195 0.304969 14.9248 0 14.5185 0ZM13.842 23.014L1.35289 23.014L1.35289 1.35388L13.841 1.35388L13.842 23.014Z" transform="translate(0.051313873 0.16888694)" id="Fill-4" fill="#000000" fill-rule="evenodd" stroke="none" />
        <path d="M1.21866 2.91138L2.47132 1.65872L3.72399 2.91138C3.96043 3.18258 4.40051 3.18258 4.67168 2.91138C4.94285 2.64019 4.94287 2.23486 4.67168 1.96369L2.91138 0.203397C2.64019 -0.0677991 2.23486 -0.0677991 1.96369 0.203397L0.203397 1.96369C-0.0677991 2.23489 -0.0677991 2.64021 0.203397 2.91138C0.507403 3.18258 0.947464 3.18258 1.21866 2.91138Z" transform="translate(17.276905 7.10611)" id="Fill-5" fill="#000000" fill-rule="evenodd" stroke="none" />
    </g>
</svg>
