<?xml version="1.0" encoding="utf-8"?>
<svg width="21px" height="23px" viewBox="0 0 21 23" version="1.1" xmlns:xlink="http://www.w3.org/1999/xlink" xmlns="http://www.w3.org/2000/svg">
    <desc>Created with Lunacy</desc>
    <defs>
        <filter id="filter_1">
            <feColorMatrix in="SourceGraphic" type="matrix" values="0 0 0 0 0.05882353 0 0 0 0 0.35686275 0 0 0 0 0.4117647 0 0 0 1 0" />
        </filter>
    </defs>
    <g id="Group-6" transform="translate(0.15002441 0.15000153)" filter="url(#filter_1)">
        <path d="M3.21288 0.178185L2.09284 1.26956L1.0022 0.177345C0.796341 -0.0591148 0.413185 -0.0591148 0.177089 0.177345C-0.0590295 0.413804 -0.0590295 0.767211 0.177089 1.00365L1.7097 2.53847C1.94581 2.77493 2.29871 2.77493 2.53481 2.53847L4.06741 1.00365C4.30353 0.76719 4.30353 0.413782 4.06741 0.177345C3.80189 -0.0582747 3.41959 -0.0582747 3.21288 0.178187L3.21288 0.178185Z" transform="translate(15.10032 12.628795)" id="Fill-1" fill="#000000" fill-rule="evenodd" stroke="#000000" stroke-width="0.3" />
        <path d="M2.00398 4.01376C3.12402 4.01376 4.00796 3.09909 4.00796 2.00688C4.00796 0.914667 3.09462 0 2.00398 0C0.883943 0 0 0.914667 0 2.00688C0 3.09909 0.883943 4.01376 2.00398 4.01376ZM2.00398 1.18064C2.44595 1.18064 2.82909 1.56433 2.82909 2.00694C2.82909 2.44955 2.44595 2.83325 2.00398 2.83325C1.56201 2.83325 1.17887 2.44955 1.17887 2.00694C1.17887 1.56433 1.53261 1.18064 2.00398 1.18064Z" transform="translate(4.6700077 1.8588462)" id="Fill-2" fill="#000000" fill-rule="evenodd" stroke="#000000" stroke-width="0.3" />
        <path d="M0.589663 7.61323L0.648481 7.61323L0.648481 12.8952C0.648481 13.22 0.914003 13.485 1.2375 13.485L4.59675 13.4859C4.92109 13.4859 5.18577 13.22 5.18577 12.896L5.18577 7.61342L5.24459 7.61342C5.56892 7.61342 5.8336 7.34752 5.8336 7.02356L5.83444 2.92144C5.83444 1.29825 4.53796 0 2.91722 0C1.29649 0 0 1.29836 0 2.92144L0 6.99318C0 7.34743 0.265523 7.61334 0.589854 7.61334L0.589663 7.61323ZM4.00786 12.3051L3.50708 12.3051L3.50708 10.1215C3.50708 9.7967 3.24156 9.53164 2.91806 9.53164C2.59373 9.53164 2.32905 9.79754 2.32905 10.1215L2.32905 12.3051L1.82827 12.3051L1.82659 7.61323L4.00794 7.61323L4.00786 12.3051ZM1.17883 2.92131C1.17883 1.94775 1.97454 1.18033 2.91729 1.18033C3.88945 1.18033 4.65575 1.97719 4.65575 2.92131L4.65575 6.40325L1.17883 6.40325L1.17883 2.92131Z" transform="translate(3.7569163 6.1967163)" id="Fill-3" fill="#000000" fill-rule="evenodd" stroke="#000000" stroke-width="0.3" />
        <path d="M12.6406 0L0.589016 0C0.264684 0 0 0.265906 0 0.589867L0 20.6561C0 20.9809 0.265523 21.2459 0.589016 21.2459L12.6406 21.2459C12.9649 21.2459 13.2296 20.98 13.2296 20.6561L13.2296 0.589867C13.2296 0.265906 12.9943 0 12.6406 0ZM12.0516 20.0662L1.1779 20.0662L1.1779 1.18047L12.0507 1.18047L12.0516 20.0662Z" transform="translate(0.044676606 0.14725451)" id="Fill-4" fill="#000000" fill-rule="evenodd" stroke="#000000" stroke-width="0.3" />
        <path d="M1.06103 2.53847L2.15167 1.44626L3.2423 2.53847C3.44816 2.77493 3.83132 2.77493 4.06741 2.53847C4.30351 2.30201 4.30353 1.9486 4.06741 1.71217L2.53481 0.177345C2.29869 -0.0591148 1.94579 -0.0591148 1.7097 0.177345L0.177089 1.71217C-0.0590295 1.94863 -0.0590295 2.30203 0.177089 2.53847C0.441772 2.77493 0.824913 2.77493 1.06103 2.53847Z" transform="translate(15.042199 6.195901)" id="Fill-5" fill="#000000" fill-rule="evenodd" stroke="#000000" stroke-width="0.3" />
    </g>
</svg>
