<?xml version="1.0" encoding="UTF-8"?>
<svg width="100px" height="56px" viewBox="0 0 100 56" version="1.1" xmlns="http://www.w3.org/2000/svg" xmlns:xlink="http://www.w3.org/1999/xlink">
    <title>np_tower-bridge_668060_000000</title>
    <defs>
        <filter id="filter-1">
            <feColorMatrix in="SourceGraphic" type="matrix" values="0 0 0 0 0.244112 0 0 0 0 0.780469 0 0 0 0 1.000000 0 0 0 1.000000 0"></feColorMatrix>
        </filter>
    </defs>
    <g id="Web" stroke="none" stroke-width="1" fill="none" fill-rule="evenodd">
        <g id="np_tower-bridge_668060_000000" transform="translate(-21.000000, -24.000000)" filter="url(#filter-1)">
            <g transform="translate(21.000000, 24.000000)">
                <path d="M80.434,21.812 C84.9262,25.6831 91.961,30.5425 100,31.929 L100,29.7142 C91.7773,28.1478 84.523,22.6048 80.434,18.8622 L80.434,21.812 Z" id="Path" fill="#000000" fill-rule="nonzero"></path>
                <path d="M0,31.934 C8.0352,30.5434 15.074,25.6879 19.566,21.817 L19.566,18.8717 C15.4762,22.6139 8.226,28.1569 0,29.7237 L0,31.934 Z" id="Path" fill="#000000" fill-rule="nonzero"></path>
                <path d="M78.262,7.348 L76.0862,7.348 L76.0862,11.6957 L73.9104,11.6957 L70.6487,0.8247 L67.3909,11.6957 L65.2151,11.6957 L65.219006,7.348 L63.043206,7.348 L63.043206,16.0433 L36.957206,16.0433 L36.957206,7.348 L34.781406,7.348 L34.781406,11.6957 L32.605606,11.6957 L29.343906,0.8247 L26.086106,11.6957 L23.910306,11.6957 L23.914212,7.348 L21.738412,7.348 L21.738412,35.61 L0.000412,35.61 L0.000412,39.9577 L19.566412,39.9577 L19.566412,46.4811 L0.000412,46.477193 L0.000412,48.652993 L100.000412,48.652993 L100.000412,46.477193 L80.434412,46.477193 L80.434412,39.953793 L100.000412,39.953793 L100.000412,35.606093 L78.262412,35.609999 L78.262,7.348 Z M28.262,31.262 L26.0862,31.262 L26.0862,26.9143 L28.262,26.9143 L28.262,31.262 Z M28.262,22.5667 L26.0862,22.5667 L26.0862,18.219 L28.262,18.219 L28.262,22.5667 Z M32.6097,31.262 L30.4339,31.262 L30.4339,26.9143 L32.6097,26.9143 L32.6097,31.262 Z M32.6097,22.5667 L30.4339,22.5667 L30.4339,18.219 L32.6097,18.219 L32.6097,22.5667 Z M60.8717,46.4767 L39.1297,46.4767 L39.1297,42.547 L50.0007,38.9259 L60.8717,42.547 L60.8717,46.4767 Z M39.1297,40.2619 L39.1297,37.7814 L46.5633,37.7814 L39.1297,40.2619 Z M60.8717,40.2619 L53.4342,37.7814 L60.8717,37.7814 L60.8717,40.2619 Z M63.0436,35.6096 L36.9576,35.6096 L36.9576,22.5666 L63.0436,22.5666 L63.0436,35.6096 Z M69.567,31.2619 L67.3912,31.2619 L67.3912,26.9142 L69.567,26.9142 L69.567,31.2619 Z M69.567,22.5666 L67.3912,22.5666 L67.3912,18.2189 L69.567,18.2189 L69.567,22.5666 Z M73.9147,31.2619 L71.7389,31.2619 L71.7389,26.9142 L73.9147,26.9142 L73.9147,31.2619 Z M73.9147,22.5666 L71.7389,22.5666 L71.7389,18.2189 L73.9147,18.2189 L73.9147,22.5666 Z" id="Shape" fill="#000000" fill-rule="nonzero"></path>
                <polygon id="Path" fill="#000000" fill-rule="nonzero" points="26.086 53 34.7813 53 34.7813 55.1758 26.086 55.1758"></polygon>
                <polygon id="Path" fill="#000000" fill-rule="nonzero" points="6.5234 53 15.2187 53 15.2187 55.1758 6.5234 55.1758"></polygon>
                <polygon id="Path" fill="#000000" fill-rule="nonzero" points="84.781 53 93.4763 53 93.4763 55.1758 84.781 55.1758"></polygon>
                <polygon id="Path" fill="#000000" fill-rule="nonzero" points="65.219 53 73.9143 53 73.9143 55.1758 65.219 55.1758"></polygon>
                <polygon id="Path" fill="#000000" fill-rule="nonzero" points="45.652 53 54.3473 53 54.3473 55.1758 45.652 55.1758"></polygon>
            </g>
        </g>
    </g>
</svg>
