<?xml version="1.0" encoding="UTF-8"?>
<svg width="22px" height="18px" viewBox="0 0 22 18" version="1.1" xmlns="http://www.w3.org/2000/svg" xmlns:xlink="http://www.w3.org/1999/xlink">
    <title>Group 4</title>
    <defs>
        <filter id="filter-1">
            <feColorMatrix in="SourceGraphic" type="matrix" values="0 0 0 0 0.058824 0 0 0 0 0.356863 0 0 0 0 0.411765 0 0 0 1.000000 0"></feColorMatrix>
        </filter>
    </defs>
    <g id="Web" stroke="none" stroke-width="1" fill="none" fill-rule="evenodd">
        <g id="2.2.1-Map" transform="translate(-781.000000, -344.000000)">
            <g id="map" transform="translate(321.124005, 105.000000)">
                <g id="Group-4" transform="translate(378.875995, 235.000000)" filter="url(#filter-1)">
                    <g transform="translate(82.000000, 5.000000)">
                        <path d="M17.5822219,7.27397105 C18.9504527,7.27397105 20.0906451,6.15694741 20.0906451,4.7655479 C20.0906451,3.37414838 18.9736215,2.25712475 17.5822219,2.25712475 L14.7540889,2.25712475 C14.1153987,2.25712475 13.523046,2.48516322 13.0438004,2.91807145 L10.5586371,5.26800786 C10.4900477,4.60706116 10.1257289,4.036965 9.601058,3.67173859 C10.0571349,3.28425562 10.3760239,2.71415945 10.3760239,2.07546931 C10.3760239,0.935276972 9.44070135,-4.56076936e-05 8.30050901,-4.56076936e-05 C7.16031667,-4.56076936e-05 6.22499409,0.935276972 6.22499409,2.07546931 C6.22499409,2.71415945 6.52162653,3.28425562 6.99996002,3.67173859 C6.40669514,4.08239026 6.01921218,4.76650566 6.01921218,5.54147159 L6.01921218,9.50888485 L4.47014687,10.9457096 L2.62267042,10.9457096 C1.25443916,10.9457096 0.114246816,12.0627333 0.114246816,13.4541328 C0.114246816,14.8455323 1.23127045,15.9625559 2.62267042,15.9625559 L5.47315127,15.9625559 C6.11184141,15.9625559 6.70419413,15.7345175 7.18343977,15.3016092 L15.7348823,7.27397105 L17.5822219,7.27397105 Z M7.11480019,2.0753781 C7.11480019,1.4144314 7.6394711,0.889760494 8.3004178,0.889760494 C8.96136449,0.889760494 9.4860354,1.4144314 9.4860354,2.0753781 C9.4860354,2.73632479 8.96136449,3.2609957 8.3004178,3.2609957 C7.66261701,3.2609957 7.11480019,2.71317889 7.11480019,2.0753781 Z M6.90992131,5.54133477 C6.90992131,4.76636884 7.54861145,4.14993525 8.30132083,4.14993525 C9.07628676,4.14993525 9.69272034,4.78862539 9.69272034,5.54133477 L9.69272034,6.06600567 L6.90996692,8.68844805 L6.90992131,5.54133477 Z M15.2556732,6.52208261 L6.56786361,14.639796 C6.27123117,14.9132597 5.88374821,15.0727042 5.47309654,15.0727042 L2.62261569,15.0735936 C1.73362984,15.0735936 1.00317702,14.3440529 1.00317702,13.4541556 C1.00317702,12.5651704 1.73271769,11.8347176 2.62261569,11.8347176 L4.65179319,11.8347176 C4.76581242,11.8347176 4.87983166,11.7892878 4.94842563,11.7206984 L13.6592671,3.60207283 C13.9558995,3.3286091 14.3433825,3.16916461 14.7540341,3.16916461 L17.5812551,3.16916461 C18.4702402,3.16916461 19.200693,3.89870527 19.200693,4.78860259 C19.200693,5.67758775 18.4711524,6.40804057 17.5812551,6.40804057 L15.5520776,6.40804057 C15.4612179,6.40804057 15.3471987,6.45347039 15.2554451,6.52205981 L15.2556732,6.52208261 Z" id="Fill-1" stroke="#0F5B69" stroke-width="0.600000024" fill="#0F5B69"></path>
                    </g>
                </g>
            </g>
        </g>
    </g>
</svg>
