<?xml version="1.0" standalone="no"?>
<!DOCTYPE svg PUBLIC "-//W3C//DTD SVG 20010904//EN"
 "http://www.w3.org/TR/2001/REC-SVG-20010904/DTD/svg10.dtd">
<svg version="1.0" xmlns="http://www.w3.org/2000/svg"
 width="1600.000000pt" height="1600.000000pt" viewBox="0 0 1600.000000 1600.000000"
 preserveAspectRatio="xMidYMid meet">
<metadata>
Created by potrace 1.11, written by Peter Selinger 2001-2013
</metadata>
<g transform="translate(0.000000,1600.000000) scale(0.100000,-0.100000)"
fill="#000000" stroke="none">
<path d="M4689 12333 c-2 -17 -4 -25 -12 -43 -3 -8 -18 -58 -32 -110 -15 -52
-29 -102 -32 -110 -3 -8 -7 -19 -9 -25 -1 -5 -12 -41 -24 -80 -12 -38 -23 -77
-25 -85 -3 -8 -20 -67 -39 -130 -19 -63 -49 -162 -66 -220 -17 -58 -45 -149
-61 -202 -17 -53 -32 -105 -34 -115 -2 -10 -13 -46 -24 -79 -12 -34 -22 -70
-24 -80 -2 -11 -7 -26 -10 -34 -8 -22 -60 -192 -63 -210 -12 -60 -58 -190 -72
-199 -5 -3 -84 -5 -174 -3 l-163 3 0 344 c1 190 -2 346 -5 346 -3 1 -79 2
-169 3 -188 2 -179 7 -172 -104 1 -14 0 -42 -2 -63 -2 -21 0 -40 5 -43 4 -3 5
-10 2 -16 -10 -16 -11 -99 -1 -105 4 -2 4 -9 1 -15 -10 -15 -11 -99 -2 -104 5
-3 5 -10 2 -16 -10 -15 -11 -99 -2 -105 5 -2 5 -12 0 -21 -6 -14 -8 -526 -2
-542 1 -3 1 -9 0 -15 -6 -27 -5 -82 1 -102 5 -12 5 -24 1 -27 -8 -5 -8 -164 1
-172 4 -4 3 -14 -1 -23 -4 -9 -6 -29 -5 -46 2 -16 3 -41 2 -55 -1 -31 -1 -96
1 -130 0 -14 -1 -42 -3 -63 -2 -21 0 -40 5 -43 4 -3 5 -10 2 -16 -10 -16 -11
-99 -1 -105 4 -2 4 -9 1 -15 -10 -15 -11 -99 -2 -104 5 -3 5 -10 2 -16 -10
-15 -11 -99 -2 -105 5 -2 5 -12 0 -21 -4 -9 -6 -48 -5 -87 4 -92 4 -84 0 -128
-2 -21 0 -40 5 -43 4 -3 5 -10 2 -16 -10 -16 -11 -99 -1 -105 4 -2 4 -9 1 -15
-10 -15 -11 -99 -2 -104 5 -3 5 -10 2 -16 -10 -15 -11 -99 -2 -105 5 -2 5 -12
0 -21 -6 -14 -8 -372 -2 -472 0 -14 -1 -42 -3 -63 -2 -21 0 -40 5 -43 4 -3 5
-10 2 -16 -10 -16 -11 -99 -1 -105 4 -2 4 -9 1 -15 -10 -15 -11 -99 -2 -104 5
-3 5 -10 2 -16 -10 -16 -11 -99 -1 -105 4 -2 4 -9 0 -16 -3 -6 -7 -173 -7
-371 l-1 -361 -1735 -1 -1735 -1 0 -348 0 -349 1563 0 1562 1 0 -522 0 -521
-1547 0 c-852 1 -1556 -1 -1566 -3 -15 -3 -17 -20 -17 -175 l0 -171 7997 0
7998 0 3 175 2 175 -1565 0 -1565 -1 2 521 3 520 1555 2 c855 1 1558 2 1563 2
4 1 7 156 7 346 0 269 -3 345 -12 346 -7 0 -785 1 -1728 1 -943 0 -1722 4
-1730 9 -8 5 -12 9 -8 9 4 0 3 11 -2 24 -5 13 -6 27 -2 30 9 10 9 96 -1 96 -5
0 -5 5 -1 11 10 16 12 80 3 105 -4 12 -5 25 -1 28 9 10 9 96 -1 96 -4 0 -4 8
0 18 7 15 10 559 3 587 -1 6 -1 12 0 15 6 14 4 100 -3 100 -5 0 -5 5 -1 11 10
16 12 80 3 105 -4 12 -5 25 -1 28 9 10 9 96 -1 96 -5 0 -5 5 -1 12 10 15 12
237 2 264 -4 12 -4 25 0 28 9 10 9 96 -1 96 -5 0 -5 5 -1 11 10 16 12 80 3
105 -4 12 -5 25 -1 28 9 10 9 96 -1 96 -4 0 -4 8 0 18 7 13 9 362 4 472 -1 14
0 44 2 68 2 23 -1 42 -6 42 -4 0 -5 5 -1 12 10 15 11 99 1 105 -4 2 -4 9 -1
15 10 15 10 108 1 108 -5 0 -5 5 -1 12 10 15 11 99 2 105 -5 2 -5 12 0 21 6
14 8 365 3 472 -1 14 0 44 2 68 2 23 -1 42 -6 42 -4 0 -5 5 -1 12 10 15 11 99
1 105 -4 2 -4 9 -1 15 10 15 10 108 1 108 -5 0 -5 5 -1 12 10 15 11 99 2 105
-5 2 -5 12 0 21 4 9 6 49 5 87 -4 88 -4 82 0 133 2 23 -1 42 -6 42 -4 0 -5 5
-1 12 10 15 11 99 1 105 -4 2 -4 9 -1 15 10 15 11 80 3 104 -4 12 -5 25 -1 28
13 13 10 37 -6 44 -10 5 -89 8 -177 8 l-160 -1 0 -345 -1 -345 -175 -3 -176
-2 -22 77 c-12 43 -23 85 -25 93 -7 28 -47 155 -62 193 -7 20 -12 37 -9 37 3
0 -4 24 -14 53 -10 28 -28 88 -41 132 -12 44 -26 89 -30 100 -9 25 -52 165
-54 179 -1 6 -11 38 -21 71 -10 33 -20 65 -21 70 -1 6 -12 42 -24 80 -12 39
-23 77 -25 85 -2 8 -18 60 -35 115 -17 55 -33 108 -35 118 -4 16 -19 67 -33
107 -8 23 -10 30 -31 105 -10 39 -24 81 -29 95 l-10 25 -8 -30 c-5 -16 -9 -32
-9 -35 -1 -3 -16 -52 -33 -110 -18 -58 -44 -141 -57 -185 -13 -44 -43 -141
-65 -215 -23 -74 -43 -142 -45 -150 -8 -30 -34 -117 -55 -185 -12 -38 -26 -88
-31 -109 -6 -22 -13 -44 -17 -50 -3 -6 -7 -15 -8 -21 -1 -9 -29 -110 -38 -140
-2 -5 -4 -13 -6 -17 -1 -4 -9 -29 -17 -55 -25 -80 -54 -177 -58 -193 -2 -8
-10 -35 -18 -60 -13 -38 -38 -122 -42 -140 0 -3 -6 -14 -12 -25 -10 -19 -20
-20 -180 -17 l-168 3 0 340 c0 187 -2 344 -5 347 -3 4 -80 8 -172 8 -159 0
-167 -1 -170 -21 -2 -11 -3 -324 -3 -696 l1 -675 -2085 0 -2086 1 -2 680 c0
374 -2 687 -2 695 -1 13 -27 15 -171 15 -108 0 -170 -3 -171 -10 -1 -5 -2
-159 -3 -342 0 -182 -4 -334 -8 -338 -6 -6 -339 -8 -344 -2 -2 1 -5 14 -8 27
-2 14 -17 63 -31 110 -22 71 -46 150 -59 195 -18 63 -39 133 -43 145 -3 8 -7
20 -8 25 -5 23 -38 131 -45 150 -5 11 -12 34 -16 50 -4 17 -8 32 -9 35 -1 3
-7 25 -14 50 -7 25 -19 61 -26 80 -7 19 -13 38 -14 42 -1 4 -3 13 -5 20 -2 7
-6 22 -9 33 -3 11 -19 67 -37 125 -18 58 -34 112 -35 120 -2 8 -4 16 -5 18 -2
1 -4 7 -5 12 -1 6 -4 12 -5 15 -1 3 -3 8 -4 13 -2 4 -8 27 -16 52 -17 57 -16
53 -38 130 -10 36 -22 72 -25 80 -8 20 -41 132 -43 145 -2 20 -23 60 -25 48z
m-174 -2775 c6 -5 10 -529 6 -665 -1 -23 -1 -23 -174 -23 l-173 0 0 343 c0
188 4 345 8 348 13 8 325 6 333 -3z m699 -40 c0 -27 3 -48 8 -48 5 0 6 -5 2
-12 -11 -17 -11 -388 0 -388 5 0 4 -6 -1 -12 -5 -7 -8 -52 -7 -100 l1 -88
-173 0 -174 0 0 348 0 348 173 0 172 -1 -1 -47z m5911 43 c6 -1 9 -79 8 -218
-2 -120 -3 -275 -3 -345 l0 -128 -173 0 -173 0 0 348 0 348 165 -2 c91 -1 171
-2 176 -3z m701 -343 l1 -348 -174 0 c-158 0 -173 2 -174 18 0 25 -1 589 0
637 l1 40 173 0 172 0 1 -347z m-1740 -1390 l-1 -1043 -2085 0 -2085 0 -1
1043 0 1042 2086 0 2086 0 0 -1042z m-5571 340 c5 -5 10 -610 6 -683 -1 -11
-258 -12 -285 -2 -9 4 -16 2 -16 -2 0 -11 -26 -8 -37 3 -4 4 -8 159 -9 344 0
265 2 338 12 342 20 8 322 6 329 -2z m697 3 c4 -1 5 -14 3 -31 -2 -16 1 -30 6
-30 6 0 7 -5 3 -12 -11 -17 -11 -468 0 -468 5 0 5 -6 0 -12 -5 -7 -9 -41 -8
-75 0 -52 -2 -62 -18 -66 -10 -3 -18 -1 -18 4 0 5 -10 5 -22 1 -19 -6 -132 -7
-260 -3 l-28 1 0 343 c0 189 2 346 4 348 4 3 315 3 338 0z m5912 -2 c4 -3 6
-149 5 -325 0 -175 0 -329 0 -341 1 -25 2 -24 -94 -27 -33 0 -63 4 -67 9 -5 7
-8 7 -8 0 0 -8 -66 -11 -160 -6 -14 1 -16 41 -15 339 1 185 3 342 3 347 2 11
326 14 336 4z m702 -341 l0 -346 -22 -5 c-13 -2 -28 1 -33 6 -6 6 -11 7 -11 1
0 -7 -200 -11 -275 -5 -8 1 -11 403 -6 666 l1 30 172 0 173 -1 1 -346z m-4404
-1399 c-4 -3 -79 -29 -167 -58 -88 -29 -167 -55 -175 -58 -8 -3 -19 -7 -25 -9
-5 -1 -64 -21 -130 -44 -66 -23 -127 -43 -136 -45 -18 -4 -162 -52 -194 -65
-32 -13 -209 -72 -225 -75 -8 -2 -16 -4 -17 -4 -2 -1 -6 -1 -10 -2 -5 -1 -16
-5 -26 -11 -10 -5 -27 -11 -38 -13 -18 -4 -19 3 -18 103 0 59 -1 112 -2 117
-1 6 0 15 1 20 1 6 2 42 1 80 l-2 70 585 0 c322 0 582 -3 578 -6z m2315 -191
l2 -197 -52 16 c-29 8 -90 28 -137 45 -47 16 -92 31 -100 33 -8 2 -103 34
-210 70 -107 37 -199 68 -205 69 -5 2 -17 6 -25 9 -16 6 -212 71 -220 73 -3 0
-12 3 -20 7 -8 3 -53 18 -100 33 -47 15 -88 30 -92 33 -4 3 255 6 575 6 l582
0 2 -197z m-1635 -19 c51 -17 102 -34 113 -38 28 -11 121 -42 137 -45 7 -2 20
-6 28 -9 17 -7 340 -117 355 -121 22 -5 61 -18 80 -25 11 -5 92 -32 180 -60
88 -29 169 -56 180 -61 11 -4 133 -45 270 -89 261 -85 302 -102 297 -123 -6
-21 -3 -420 2 -426 3 -3 1 -11 -5 -18 -7 -8 -7 -14 1 -19 6 -3 7 -11 4 -17 -4
-6 -6 -36 -5 -67 l1 -56 -1739 0 -1740 0 0 217 c0 120 -3 222 -6 228 -3 5 -2
10 4 10 5 0 7 10 5 23 -3 12 -5 29 -5 37 0 8 1 38 2 65 l1 50 62 20 c33 10 66
20 71 22 6 1 71 23 145 48 74 26 142 48 150 50 8 3 130 43 270 90 140 48 260
88 265 89 6 2 17 6 25 9 12 5 354 118 370 122 3 1 12 4 20 8 29 11 175 59 190
62 8 2 15 4 15 5 0 2 141 48 152 49 6 1 53 -13 105 -30z"/>
<path d="M12871 9224 l0 -239 105 -85 c58 -47 117 -95 132 -108 15 -12 52 -42
82 -65 30 -23 60 -46 66 -52 11 -11 21 -18 129 -96 38 -28 72 -54 75 -57 9
-13 69 -52 79 -52 5 0 11 -4 13 -9 4 -11 413 -284 428 -286 3 0 24 -13 48 -28
75 -49 302 -177 312 -177 6 0 10 -4 10 -10 0 -5 7 -10 15 -10 8 0 37 -13 65
-30 28 -16 57 -30 65 -30 7 0 15 -4 17 -8 2 -7 100 -58 128 -67 3 -1 28 -12
55 -25 28 -13 52 -24 55 -25 3 0 14 -6 26 -12 24 -14 324 -135 339 -137 6 -1
17 -6 25 -11 8 -5 20 -10 25 -12 6 -1 44 -13 85 -28 41 -14 80 -27 85 -29 6
-1 37 -11 70 -21 33 -11 67 -19 75 -19 8 0 17 -3 20 -6 5 -6 249 -71 280 -75
8 -1 24 -4 35 -8 11 -3 38 -8 59 -12 40 -5 77 -13 109 -22 16 -4 17 9 17 174
l0 179 -112 24 c-62 13 -117 25 -123 26 -5 2 -50 14 -100 29 -49 14 -94 27
-100 29 -8 2 -94 28 -135 41 -3 1 -13 5 -22 8 -44 17 -54 20 -68 23 -8 2 -30
10 -50 18 -19 8 -73 29 -120 46 -47 18 -91 37 -97 42 -7 6 -13 8 -13 5 0 -8
-271 118 -425 197 -130 67 -187 97 -280 150 -27 16 -59 34 -70 40 -11 6 -36
22 -55 36 -19 14 -37 25 -40 24 -6 -1 -71 40 -203 128 -49 32 -93 58 -98 58
-5 0 -9 4 -9 8 0 5 -12 15 -27 23 -16 8 -30 17 -33 20 -3 3 -27 20 -55 39 -27
19 -52 36 -55 39 -3 4 -45 35 -95 71 -49 35 -92 66 -95 69 -3 4 -43 35 -90 71
-47 35 -92 72 -101 82 -9 10 -19 18 -23 18 -7 0 -192 153 -211 174 -5 6 -23
22 -40 35 -16 12 -52 43 -80 69 -27 25 -62 57 -77 71 l-28 25 1 -240z"/>
<path d="M3069 9407 c-25 -23 -74 -67 -109 -97 -35 -30 -74 -65 -87 -78 -13
-13 -23 -20 -23 -16 0 5 -6 1 -12 -8 -7 -8 -51 -46 -98 -84 -47 -38 -86 -72
-88 -76 -2 -5 -10 -8 -18 -8 -8 0 -14 -4 -14 -9 0 -4 -15 -19 -34 -32 -18 -13
-96 -71 -172 -129 -219 -164 -682 -470 -714 -470 -5 0 -10 -4 -10 -8 0 -5 -18
-17 -40 -27 -23 -10 -50 -27 -62 -37 -11 -9 -25 -15 -29 -12 -5 3 -9 1 -9 -4
0 -4 -16 -14 -35 -22 -19 -8 -35 -17 -35 -22 0 -4 -9 -8 -19 -8 -11 0 -21 -4
-23 -8 -3 -9 -276 -144 -282 -140 -2 2 -12 -5 -22 -14 -11 -9 -23 -17 -29 -17
-18 -2 -50 -14 -55 -20 -7 -10 -366 -151 -401 -158 -16 -3 -29 -9 -29 -13 0
-3 -6 -7 -12 -7 -12 -1 -204 -58 -238 -70 -8 -3 -19 -7 -25 -8 -5 -2 -39 -10
-74 -20 -35 -9 -76 -18 -90 -20 -14 -2 -37 -8 -51 -13 -14 -5 -29 -10 -35 -11
-5 0 -29 -3 -52 -7 l-43 -6 0 -180 0 -180 28 6 c15 4 41 9 57 12 45 9 60 12
60 14 0 1 11 3 25 5 34 5 63 11 156 35 43 12 86 23 94 25 8 2 15 4 15 5 0 1 7
3 15 5 67 13 354 106 407 130 17 8 35 15 41 15 5 0 41 13 78 29 80 33 107 44
114 46 3 1 22 9 44 18 21 9 40 17 41 17 27 0 518 250 662 337 40 23 75 43 77
43 6 0 75 45 94 60 6 6 12 9 12 6 0 -5 126 75 147 93 7 6 15 11 18 11 14 0
327 219 333 233 2 4 8 7 12 7 10 0 237 169 317 237 28 23 54 43 57 43 3 0 16
10 29 23 13 12 62 54 110 92 l86 70 0 233 c1 127 -2 232 -6 232 -5 0 -29 -20
-54 -43z"/>
<path d="M1080 3998 c0 -3 -8 -4 -18 -1 -17 4 -18 -7 -16 -164 1 -92 2 -171 3
-175 0 -3 313 -6 693 -5 l693 2 0 163 c0 90 -2 168 -5 173 -5 8 -39 11 -100 8
-8 0 -44 0 -80 0 -36 1 -73 1 -82 1 -10 0 -29 0 -43 0 -14 0 -31 -1 -37 -1 -7
0 -62 0 -123 1 -60 1 -114 0 -120 0 -12 -2 -52 0 -80 4 -11 2 -34 0 -52 -5
-18 -4 -36 -3 -39 2 -3 5 -10 7 -15 4 -5 -4 -42 -6 -81 -6 -40 1 -102 1 -138
1 -36 -1 -72 -1 -80 -1 -8 0 -46 0 -85 0 -80 0 -74 -1 -143 3 -28 2 -52 0 -52
-4z"/>
<path d="M4214 4002 l-40 -3 0 -172 1 -172 695 0 695 0 0 170 0 170 -25 2
c-21 2 -105 3 -172 3 -10 0 -29 0 -43 0 -14 0 -31 -1 -37 -1 -7 0 -62 0 -123
1 -60 1 -114 0 -120 0 -12 -2 -52 0 -80 4 -11 2 -34 0 -52 -5 -18 -4 -36 -3
-39 2 -3 5 -10 7 -15 4 -5 -4 -42 -6 -81 -6 -40 1 -100 1 -133 1 -125 0 -137
0 -145 5 -5 3 -11 1 -14 -4 -3 -5 -21 -5 -41 -1 -19 4 -37 4 -40 0 -3 -5 -18
-5 -34 0 -15 4 -34 4 -41 0 -6 -4 -26 -5 -44 -1 -17 3 -49 5 -72 3z"/>
<path d="M7428 4005 c-3 -3 -32 -6 -64 -6 l-60 -1 2 -167 c1 -91 2 -169 3
-173 0 -4 313 -7 693 -5 l693 2 0 168 c0 93 -2 170 -6 173 -5 3 -44 4 -121 4
-10 0 -29 0 -43 0 -14 0 -31 -1 -37 -1 -7 0 -62 0 -123 1 -60 1 -114 0 -120 0
-12 -2 -52 0 -80 4 -11 2 -34 0 -52 -5 -18 -4 -36 -3 -39 2 -3 5 -10 7 -15 4
-5 -4 -42 -6 -81 -6 -66 1 -187 1 -213 0 -17 0 -149 1 -170 2 -11 0 -27 0 -35
0 -51 -2 -114 0 -120 4 -4 2 -9 2 -12 0z"/>
<path d="M10438 4003 c-3 -5 -4 -84 -4 -178 l1 -170 696 -2 696 -2 -1 172 -1
172 -40 2 c-22 2 -69 3 -105 3 -36 -1 -72 -1 -80 -1 -8 0 -46 0 -85 0 -38 0
-77 0 -85 0 -14 1 -124 1 -145 0 -5 0 -39 0 -75 0 -36 1 -73 1 -82 1 -10 0
-29 0 -43 0 -14 0 -31 -1 -37 -1 -7 0 -62 0 -123 1 -60 1 -114 0 -120 0 -12
-2 -52 0 -80 4 -11 2 -34 0 -52 -5 -18 -4 -36 -3 -39 2 -3 5 -10 7 -15 3 -6
-3 -43 -6 -84 -6 -41 0 -78 3 -84 6 -5 4 -11 3 -13 -1z"/>
<path d="M13590 4002 c-8 -3 -17 -9 -20 -13 -3 -4 -5 -81 -5 -171 l0 -163 695
0 695 0 0 170 0 170 -25 2 c-55 5 -201 6 -206 1 -3 -3 -21 -2 -40 2 -19 4 -36
4 -39 0 -3 -5 -18 -5 -34 0 -15 4 -34 4 -41 0 -6 -4 -27 -4 -45 0 -18 4 -38 4
-45 0 -7 -4 -27 -4 -46 0 -19 4 -34 4 -34 0 0 -4 -16 -4 -35 0 -19 4 -37 4
-40 0 -3 -5 -18 -5 -34 0 -15 4 -34 4 -41 0 -6 -4 -27 -4 -45 0 -18 4 -38 4
-45 0 -7 -4 -26 -5 -44 -1 -17 3 -44 5 -61 4 -16 -2 -41 -3 -55 -3 -14 1 -34
0 -45 0 -29 -2 -30 -2 -153 0 -62 2 -115 0 -118 -2 -2 -3 -21 -2 -42 2 -21 3
-44 4 -52 2z"/>
</g>
</svg>
